<svg xmlns="http://www.w3.org/2000/svg" viewBox="0 0 400 400" width="400" height="400">
  <defs>
    <!-- Gold gradient for buildings and text -->
    <linearGradient id="goldGradient" x1="0%" y1="0%" x2="0%" y2="100%">
      <stop offset="0%" style="stop-color:#E8C547"/>
      <stop offset="25%" style="stop-color:#D4A84B"/>
      <stop offset="50%" style="stop-color:#C9984A"/>
      <stop offset="75%" style="stop-color:#D4A84B"/>
      <stop offset="100%" style="stop-color:#B8924A"/>
    </linearGradient>
    
    <!-- Lighter gold for highlights -->
    <linearGradient id="goldHighlight" x1="0%" y1="0%" x2="100%" y2="0%">
      <stop offset="0%" style="stop-color:#F0D860"/>
      <stop offset="50%" style="stop-color:#D4A84B"/>
      <stop offset="100%" style="stop-color:#C9984A"/>
    </linearGradient>
  </defs>
  
  <!-- Outer white ring -->
  <circle cx="200" cy="200" r="195" fill="none" stroke="#FFFFFF" stroke-width="5"/>
  
  <!-- Black background circle -->
  <circle cx="200" cy="200" r="188" fill="#0D0D0D"/>
  
  <!-- Building 1 - Left rounded building -->
  <path d="M95 200 L95 145 Q95 115 115 115 L125 115 Q145 115 145 145 L145 200 Z" fill="url(#goldGradient)"/>
  <!-- Windows for building 1 -->
  <rect x="108" y="130" width="12" height="15" rx="6" fill="#0D0D0D"/>
  <rect x="108" y="155" width="12" height="15" rx="6" fill="#0D0D0D"/>
  <rect x="108" y="180" width="12" height="15" rx="6" fill="#0D0D0D"/>
  
  <!-- Building 2 - Tall center-left building -->
  <rect x="150" y="85" width="45" height="115" fill="url(#goldGradient)"/>
  <!-- Windows for building 2 -->
  <rect x="157" y="95" width="8" height="10" fill="#0D0D0D"/>
  <rect x="170" y="95" width="8" height="10" fill="#0D0D0D"/>
  <rect x="183" y="95" width="8" height="10" fill="#0D0D0D"/>
  <rect x="157" y="115" width="8" height="10" fill="#0D0D0D"/>
  <rect x="170" y="115" width="8" height="10" fill="#0D0D0D"/>
  <rect x="183" y="115" width="8" height="10" fill="#0D0D0D"/>
  <rect x="157" y="135" width="8" height="10" fill="#0D0D0D"/>
  <rect x="170" y="135" width="8" height="10" fill="#0D0D0D"/>
  <rect x="183" y="135" width="8" height="10" fill="#0D0D0D"/>
  <rect x="157" y="155" width="8" height="10" fill="#0D0D0D"/>
  <rect x="170" y="155" width="8" height="10" fill="#0D0D0D"/>
  <rect x="183" y="155" width="8" height="10" fill="#0D0D0D"/>
  <rect x="157" y="175" width="8" height="10" fill="#0D0D0D"/>
  <rect x="170" y="175" width="8" height="10" fill="#0D0D0D"/>
  <rect x="183" y="175" width="8" height="10" fill="#0D0D0D"/>
  
  <!-- Building 3 - Tallest center building with pointed top -->
  <path d="M200 55 L220 55 L220 200 L200 200 Z" fill="url(#goldGradient)"/>
  <path d="M200 55 L210 40 L220 55 Z" fill="url(#goldGradient)"/>
  <!-- Windows for building 3 -->
  <rect x="205" y="65" width="10" height="12" fill="#0D0D0D"/>
  <rect x="205" y="85" width="10" height="12" fill="#0D0D0D"/>
  <rect x="205" y="105" width="10" height="12" fill="#0D0D0D"/>
  <rect x="205" y="125" width="10" height="12" fill="#0D0D0D"/>
  <rect x="205" y="145" width="10" height="12" fill="#0D0D0D"/>
  <rect x="205" y="165" width="10" height="12" fill="#0D0D0D"/>
  <rect x="205" y="185" width="10" height="12" fill="#0D0D0D"/>
  
  <!-- Building 4 - Right building with windows -->
  <rect x="225" y="100" width="40" height="100" fill="url(#goldGradient)"/>
  <!-- Windows for building 4 -->
  <rect x="232" y="110" width="8" height="10" fill="#0D0D0D"/>
  <rect x="250" y="110" width="8" height="10" fill="#0D0D0D"/>
  <rect x="232" y="130" width="8" height="10" fill="#0D0D0D"/>
  <rect x="250" y="130" width="8" height="10" fill="#0D0D0D"/>
  <rect x="232" y="150" width="8" height="10" fill="#0D0D0D"/>
  <rect x="250" y="150" width="8" height="10" fill="#0D0D0D"/>
  <rect x="232" y="170" width="8" height="10" fill="#0D0D0D"/>
  <rect x="250" y="170" width="8" height="10" fill="#0D0D0D"/>
  
  <!-- Building 5 - Small right building -->
  <rect x="270" y="150" width="35" height="50" fill="url(#goldGradient)"/>
  <!-- Windows for building 5 -->
  <rect x="277" y="158" width="6" height="8" fill="#0D0D0D"/>
  <rect x="291" y="158" width="6" height="8" fill="#0D0D0D"/>
  <rect x="277" y="172" width="6" height="8" fill="#0D0D0D"/>
  <rect x="291" y="172" width="6" height="8" fill="#0D0D0D"/>
  <rect x="277" y="186" width="6" height="8" fill="#0D0D0D"/>
  <rect x="291" y="186" width="6" height="8" fill="#0D0D0D"/>
  
  <!-- FOBBS Text -->
  <text x="200" y="250" text-anchor="middle" font-family="Arial Black, Arial, sans-serif" font-size="52" font-weight="900" fill="url(#goldGradient)">FOBBS</text>
  
  <!-- APARTMENT AND SUITES Text -->
  <text x="200" y="285" text-anchor="middle" font-family="Arial, sans-serif" font-size="18" font-weight="400" letter-spacing="3" fill="#FFFFFF">APARTMENT AND SUITES</text>
</svg>
